<?xml version="1.0" standalone="no"?>
<!DOCTYPE svg PUBLIC "-//W3C//DTD SVG 20010904//EN"
 "http://www.w3.org/TR/2001/REC-SVG-20010904/DTD/svg10.dtd">
<svg version="1.0" xmlns="http://www.w3.org/2000/svg"
 width="72.000000pt" height="70.000000pt" viewBox="0 0 72.000000 70.000000"
 preserveAspectRatio="xMidYMid meet">
<metadata>
Created by potrace 1.10, written by Peter Selinger 2001-2011
</metadata>
<g transform="translate(0.000000,70.000000) scale(0.100000,-0.100000)"
fill="#000000" stroke="none">
<path d="M137 593 c-4 -3 -7 -102 -7 -219 0 -244 -2 -239 90 -232 38 2 53 -1
72 -18 15 -14 42 -23 80 -27 48 -5 62 -2 83 15 21 16 42 21 108 22 l82 1 3
112 c2 94 0 117 -15 140 -10 15 -16 35 -15 45 3 16 -5 18 -62 18 l-66 0 0 59
c0 97 11 91 -179 91 -92 0 -171 -3 -174 -7z m327 -96 c-1 -81 -3 -90 -27 -115
-16 -16 -27 -39 -27 -55 0 -34 -13 -35 -28 -2 -6 14 -19 25 -28 25 -16 0 -16
-1 -1 -18 24 -27 21 -32 -17 -32 -49 0 -79 -40 -74 -97 l3 -43 -57 0 -58 0 0
215 0 216 158 -3 157 -3 -1 -88z m136 -72 c0 -8 -20 -12 -60 -11 -37 0 -60 5
-60 12 0 7 23 11 60 11 40 0 60 -4 60 -12z m14 -41 c9 -8 16 -20 16 -25 1 -5
1 -53 1 -106 1 -93 0 -98 -21 -101 -22 -4 -22 -3 -19 116 2 66 1 118 -3 115
-5 -2 -8 -56 -8 -119 l0 -114 -44 0 -44 0 5 38 c6 46 -17 97 -47 107 -13 4
-20 15 -20 31 0 21 5 24 35 24 19 0 35 5 35 11 0 8 -11 9 -32 5 -31 -6 -31 -6
-13 14 24 26 135 29 159 4z m-155 -118 c34 -31 20 -133 -21 -148 -22 -9 -120
1 -134 13 -35 29 -37 119 -4 142 29 20 134 16 159 -7z"/>
<path d="M226 534 c-4 -9 -13 -14 -21 -10 -19 7 -20 -8 -1 -23 10 -9 17 -6 30
13 18 29 20 36 7 36 -5 0 -12 -7 -15 -16z"/>
<path d="M260 500 c0 -6 27 -10 60 -10 33 0 60 4 60 10 0 6 -27 10 -60 10 -33
0 -60 -4 -60 -10z"/>
<path d="M223 444 c-3 -8 -12 -13 -19 -10 -16 6 -18 -3 -5 -23 8 -12 13 -11
30 10 11 13 20 27 21 32 0 14 -21 7 -27 -9z"/>
<path d="M270 410 c0 -6 27 -10 60 -10 33 0 60 4 60 10 0 6 -27 10 -60 10 -33
0 -60 -4 -60 -10z"/>
<path d="M223 344 c-3 -8 -12 -13 -20 -10 -9 4 -13 1 -11 -6 7 -20 29 -15 46
10 9 15 11 22 3 22 -6 0 -14 -7 -18 -16z"/>
</g>
</svg>
